<?xml version="1.0" encoding="UTF-8" standalone="no"?>
<!DOCTYPE svg PUBLIC "-//W3C//DTD SVG 1.1//EN"
 "http://www.w3.org/Graphics/SVG/1.1/DTD/svg11.dtd">
<!-- Generated by graphviz version 2.40.1 (20161225.0304)
 -->
<!-- Title: %0 Pages: 1 -->
<svg width="1171pt" height="1206pt"
 viewBox="0.00 0.00 1171.28 1206.00" xmlns="http://www.w3.org/2000/svg" xmlns:xlink="http://www.w3.org/1999/xlink">
<g id="graph0" class="graph" transform="scale(1 1) rotate(0) translate(144 1062)">
<title>%0</title>
<polygon fill="#ffffff" stroke="transparent" points="-144,144 -144,-1062 1027.2822,-1062 1027.2822,144 -144,144"/>
<!-- movies -->
<g id="node1" class="node">
<title>movies</title>
<polygon fill="#4477c9" stroke="transparent" points="236.4209,-350 236.4209,-688 320.4209,-688 320.4209,-350 236.4209,-350"/>
<polygon fill="#add8e6" stroke="transparent" points="236.4209,-670 236.4209,-688 320.4209,-688 320.4209,-670 236.4209,-670"/>
<polygon fill="none" stroke="#000000" points="236.4209,-670 236.4209,-688 320.4209,-688 320.4209,-670 236.4209,-670"/>
<text text-anchor="start" x="263.1722" y="-676.9" font-family="Times,serif" font-weight="bold" font-style="italic" font-size="9.00" fill="#000000"> movies </text>
<polygon fill="none" stroke="#000000" points="236.4209,-650 236.4209,-670 320.4209,-670 320.4209,-650 236.4209,-650"/>
<text text-anchor="start" x="241.4209" y="-656.9" font-family="Times,serif" font-size="9.00" fill="#000000">title: String</text>
<polygon fill="none" stroke="#000000" points="236.4209,-630 236.4209,-650 320.4209,-650 320.4209,-630 236.4209,-630"/>
<text text-anchor="start" x="241.4209" y="-636.9" font-family="Times,serif" font-size="9.00" fill="#000000">genre: String</text>
<polygon fill="none" stroke="#000000" points="236.4209,-610 236.4209,-630 320.4209,-630 320.4209,-610 236.4209,-610"/>
<text text-anchor="start" x="241.4209" y="-616.9" font-family="Times,serif" font-size="9.00" fill="#000000">duration: Number</text>
<polygon fill="none" stroke="#000000" points="236.4209,-590 236.4209,-610 320.4209,-610 320.4209,-590 236.4209,-590"/>
<text text-anchor="start" x="241.4209" y="-596.9" font-family="Times,serif" font-size="9.00" fill="#000000">year: Number</text>
<polygon fill="none" stroke="#000000" points="236.4209,-570 236.4209,-590 320.4209,-590 320.4209,-570 236.4209,-570"/>
<text text-anchor="start" x="241.4209" y="-576.9" font-family="Times,serif" font-size="9.00" fill="#000000">directors: Array</text>
<polygon fill="none" stroke="#000000" points="236.4209,-550 236.4209,-570 320.4209,-570 320.4209,-550 236.4209,-550"/>
<text text-anchor="start" x="241.4209" y="-556.9" font-family="Times,serif" font-size="9.00" fill="#000000">rating: Number</text>
<polygon fill="none" stroke="#000000" points="236.4209,-530 236.4209,-550 320.4209,-550 320.4209,-530 236.4209,-530"/>
<text text-anchor="start" x="241.3036" y="-536.9" font-family="Times,serif" font-size="9.00" fill="#000000">classification: String</text>
<polygon fill="none" stroke="#000000" points="236.4209,-510 236.4209,-530 320.4209,-530 320.4209,-510 236.4209,-510"/>
<text text-anchor="start" x="241.4209" y="-516.9" font-family="Times,serif" font-size="9.00" fill="#000000">actors: Array</text>
<polygon fill="none" stroke="#000000" points="236.4209,-490 236.4209,-510 320.4209,-510 320.4209,-490 236.4209,-490"/>
<text text-anchor="start" x="241.4209" y="-496.9" font-family="Times,serif" font-size="9.00" fill="#000000">synopsis: String</text>
<polygon fill="none" stroke="#000000" points="236.4209,-470 236.4209,-490 320.4209,-490 320.4209,-470 236.4209,-470"/>
<text text-anchor="start" x="241.4209" y="-476.9" font-family="Times,serif" font-size="9.00" fill="#000000">bannerUrl: String</text>
<polygon fill="none" stroke="#000000" points="236.4209,-450 236.4209,-470 320.4209,-470 320.4209,-450 236.4209,-450"/>
<text text-anchor="start" x="241.4209" y="-456.9" font-family="Times,serif" font-size="9.00" fill="#000000">posterUrl: String</text>
<polygon fill="none" stroke="#000000" points="236.4209,-430 236.4209,-450 320.4209,-450 320.4209,-430 236.4209,-430"/>
<text text-anchor="start" x="241.4209" y="-436.9" font-family="Times,serif" font-size="9.00" fill="#000000">trailerUrl: String</text>
<polygon fill="none" stroke="#000000" points="236.4209,-410 236.4209,-430 320.4209,-430 320.4209,-410 236.4209,-410"/>
<text text-anchor="start" x="241.4209" y="-416.9" font-family="Times,serif" font-size="9.00" fill="#000000">_id: ObjectId</text>
<polygon fill="none" stroke="#000000" points="236.4209,-390 236.4209,-410 320.4209,-410 320.4209,-390 236.4209,-390"/>
<text text-anchor="start" x="241.4209" y="-396.9" font-family="Times,serif" font-size="9.00" fill="#000000">createdAt: Date</text>
<polygon fill="none" stroke="#000000" points="236.4209,-370 236.4209,-390 320.4209,-390 320.4209,-370 236.4209,-370"/>
<text text-anchor="start" x="241.4209" y="-376.9" font-family="Times,serif" font-size="9.00" fill="#000000">updatedAt: Date</text>
<polygon fill="none" stroke="#000000" points="236.4209,-350 236.4209,-370 320.4209,-370 320.4209,-350 236.4209,-350"/>
<text text-anchor="start" x="241.4209" y="-356.9" font-family="Times,serif" font-size="9.00" fill="#000000">__v: Number</text>
</g>
<!-- showtimes -->
<g id="node4" class="node">
<title>showtimes</title>
<polygon fill="#4477c9" stroke="transparent" points="529.6938,-350 529.6938,-588 603.6938,-588 603.6938,-350 529.6938,-350"/>
<polygon fill="#add8e6" stroke="transparent" points="529.6938,-570 529.6938,-588 603.6938,-588 603.6938,-570 529.6938,-570"/>
<polygon fill="none" stroke="#000000" points="529.6938,-570 529.6938,-588 603.6938,-588 603.6938,-570 529.6938,-570"/>
<text text-anchor="start" x="545.196" y="-576.9" font-family="Times,serif" font-weight="bold" font-style="italic" font-size="9.00" fill="#000000"> showtimes </text>
<polygon fill="none" stroke="#000000" points="529.6938,-550 529.6938,-570 603.6938,-570 603.6938,-550 529.6938,-550"/>
<text text-anchor="start" x="534.6938" y="-556.9" font-family="Times,serif" font-size="9.00" fill="#000000">dateTime: Date</text>
<polygon fill="none" stroke="#000000" points="529.6938,-530 529.6938,-550 603.6938,-550 603.6938,-530 529.6938,-530"/>
<text text-anchor="start" x="534.6938" y="-536.9" font-family="Times,serif" font-size="9.00" fill="#000000">endTime: Date</text>
<polygon fill="none" stroke="#000000" points="529.6938,-510 529.6938,-530 603.6938,-530 603.6938,-510 529.6938,-510"/>
<text text-anchor="start" x="534.6938" y="-516.9" font-family="Times,serif" font-size="9.00" fill="#000000">price: Number</text>
<polygon fill="none" stroke="#000000" points="529.6938,-490 529.6938,-510 603.6938,-510 603.6938,-490 529.6938,-490"/>
<text text-anchor="start" x="534.6938" y="-496.9" font-family="Times,serif" font-size="9.00" fill="#000000">language: String</text>
<polygon fill="none" stroke="#000000" points="529.6938,-470 529.6938,-490 603.6938,-490 603.6938,-470 529.6938,-470"/>
<text text-anchor="start" x="534.3217" y="-476.9" font-family="Times,serif" font-size="9.00" fill="#000000">subtitles: Boolean</text>
<polygon fill="none" stroke="#000000" points="529.6938,-450 529.6938,-470 603.6938,-470 603.6938,-450 529.6938,-450"/>
<text text-anchor="start" x="534.6938" y="-456.9" font-family="Times,serif" font-size="9.00" fill="#000000">status: String</text>
<polygon fill="none" stroke="#000000" points="529.6938,-430 529.6938,-450 603.6938,-450 603.6938,-430 529.6938,-430"/>
<text text-anchor="start" x="534.6938" y="-436.9" font-family="Times,serif" font-size="9.00" fill="#000000">screen: ObjectId</text>
<polygon fill="none" stroke="#000000" points="529.6938,-410 529.6938,-430 603.6938,-430 603.6938,-410 529.6938,-410"/>
<text text-anchor="start" x="534.6938" y="-416.9" font-family="Times,serif" font-size="9.00" fill="#000000">movie: ObjectId</text>
<polygon fill="none" stroke="#000000" points="529.6938,-390 529.6938,-410 603.6938,-410 603.6938,-390 529.6938,-390"/>
<text text-anchor="start" x="534.6938" y="-396.9" font-family="Times,serif" font-size="9.00" fill="#000000">theater: ObjectId</text>
<polygon fill="none" stroke="#000000" points="529.6938,-370 529.6938,-390 603.6938,-390 603.6938,-370 529.6938,-370"/>
<text text-anchor="start" x="534.6938" y="-376.9" font-family="Times,serif" font-size="9.00" fill="#000000">_id: ObjectId</text>
<polygon fill="none" stroke="#000000" points="529.6938,-350 529.6938,-370 603.6938,-370 603.6938,-350 529.6938,-350"/>
<text text-anchor="start" x="534.6938" y="-356.9" font-family="Times,serif" font-size="9.00" fill="#000000">__v: Number</text>
</g>
<!-- movies&#45;&gt;showtimes -->
<g id="edge4" class="edge">
<title>movies:12&#45;&gt;showtimes:7</title>
<path fill="none" stroke="#000000" stroke-dasharray="5,2" d="M320.4209,-420C413.4311,-420 436.6836,-420 529.6938,-420"/>
<text text-anchor="middle" x="421.3256" y="-424.2" font-family="Times,serif" font-size="14.00" fill="#000000">movies&#45;showtimes</text>
<text text-anchor="middle" x="524.6405" y="-407.4" font-family="Times,serif" font-size="14.00" fill="#000000">N</text>
<text text-anchor="middle" x="323.9209" y="-407.4" font-family="Times,serif" font-size="14.00" fill="#000000">1</text>
</g>
<!-- screens -->
<g id="node2" class="node">
<title>screens</title>
<polygon fill="#4477c9" stroke="transparent" points="241.4209,-760 241.4209,-918 315.4209,-918 315.4209,-760 241.4209,-760"/>
<polygon fill="#add8e6" stroke="transparent" points="241.4209,-900 241.4209,-918 315.4209,-918 315.4209,-900 241.4209,-900"/>
<polygon fill="none" stroke="#000000" points="241.4209,-900 241.4209,-918 315.4209,-918 315.4209,-900 241.4209,-900"/>
<text text-anchor="start" x="262.9301" y="-906.9" font-family="Times,serif" font-weight="bold" font-style="italic" font-size="9.00" fill="#000000"> screens </text>
<polygon fill="none" stroke="#000000" points="241.4209,-880 241.4209,-900 315.4209,-900 315.4209,-880 241.4209,-880"/>
<text text-anchor="start" x="246.4209" y="-886.9" font-family="Times,serif" font-size="9.00" fill="#000000">name: String</text>
<polygon fill="none" stroke="#000000" points="241.4209,-860 241.4209,-880 315.4209,-880 315.4209,-860 241.4209,-860"/>
<text text-anchor="start" x="246.3094" y="-866.9" font-family="Times,serif" font-size="9.00" fill="#000000">capacity: Number</text>
<polygon fill="none" stroke="#000000" points="241.4209,-840 241.4209,-860 315.4209,-860 315.4209,-840 241.4209,-840"/>
<text text-anchor="start" x="246.4209" y="-846.9" font-family="Times,serif" font-size="9.00" fill="#000000">type: String</text>
<polygon fill="none" stroke="#000000" points="241.4209,-820 241.4209,-840 315.4209,-840 315.4209,-820 241.4209,-820"/>
<text text-anchor="start" x="246.4209" y="-826.9" font-family="Times,serif" font-size="9.00" fill="#000000">seats: Array</text>
<polygon fill="none" stroke="#000000" points="241.4209,-800 241.4209,-820 315.4209,-820 315.4209,-800 241.4209,-800"/>
<text text-anchor="start" x="246.4209" y="-806.9" font-family="Times,serif" font-size="9.00" fill="#000000">theater: ObjectId</text>
<polygon fill="none" stroke="#000000" points="241.4209,-780 241.4209,-800 315.4209,-800 315.4209,-780 241.4209,-780"/>
<text text-anchor="start" x="246.4209" y="-786.9" font-family="Times,serif" font-size="9.00" fill="#000000">_id: ObjectId</text>
<polygon fill="none" stroke="#000000" points="241.4209,-760 241.4209,-780 315.4209,-780 315.4209,-760 241.4209,-760"/>
<text text-anchor="start" x="246.4209" y="-766.9" font-family="Times,serif" font-size="9.00" fill="#000000">__v: Number</text>
</g>
<!-- screens&#45;&gt;showtimes -->
<g id="edge3" class="edge">
<title>screens:5&#45;&gt;showtimes:6</title>
<path fill="none" stroke="#000000" stroke-dasharray="5,2" d="M315.4209,-790C497.8126,-790 347.3021,-440 529.6938,-440"/>
<text text-anchor="middle" x="421.3256" y="-775.2" font-family="Times,serif" font-size="14.00" fill="#000000">screens&#45;showtimes</text>
<text text-anchor="middle" x="524.6405" y="-427.4" font-family="Times,serif" font-size="14.00" fill="#000000">N</text>
<text text-anchor="middle" x="318.9209" y="-777.4" font-family="Times,serif" font-size="14.00" fill="#000000">1</text>
</g>
<!-- seats -->
<g id="node3" class="node">
<title>seats</title>
<polygon fill="#4477c9" stroke="transparent" points="796.2822,-270 796.2822,-408 883.2822,-408 883.2822,-270 796.2822,-270"/>
<polygon fill="#add8e6" stroke="transparent" points="796.7822,-390 796.7822,-408 883.7822,-408 883.7822,-390 796.7822,-390"/>
<polygon fill="none" stroke="#000000" points="796.7822,-390 796.7822,-408 883.7822,-408 883.7822,-390 796.7822,-390"/>
<text text-anchor="start" x="829.2865" y="-396.9" font-family="Times,serif" font-weight="bold" font-style="italic" font-size="9.00" fill="#000000"> seats </text>
<polygon fill="none" stroke="#000000" points="796.7822,-370 796.7822,-390 883.7822,-390 883.7822,-370 796.7822,-370"/>
<text text-anchor="start" x="801.7822" y="-376.9" font-family="Times,serif" font-size="9.00" fill="#000000">showtime: ObjectId</text>
<polygon fill="none" stroke="#000000" points="796.7822,-350 796.7822,-370 883.7822,-370 883.7822,-350 796.7822,-350"/>
<text text-anchor="start" x="801.7822" y="-356.9" font-family="Times,serif" font-size="9.00" fill="#000000">row: String</text>
<polygon fill="none" stroke="#000000" points="796.7822,-330 796.7822,-350 883.7822,-350 883.7822,-330 796.7822,-330"/>
<text text-anchor="start" x="801.4216" y="-336.9" font-family="Times,serif" font-size="9.00" fill="#000000">seatNumber: Number</text>
<polygon fill="none" stroke="#000000" points="796.7822,-310 796.7822,-330 883.7822,-330 883.7822,-310 796.7822,-310"/>
<text text-anchor="start" x="801.7822" y="-316.9" font-family="Times,serif" font-size="9.00" fill="#000000">isAvailable: Boolean</text>
<polygon fill="none" stroke="#000000" points="796.7822,-290 796.7822,-310 883.7822,-310 883.7822,-290 796.7822,-290"/>
<text text-anchor="start" x="801.7822" y="-296.9" font-family="Times,serif" font-size="9.00" fill="#000000">_id: ObjectId</text>
<polygon fill="none" stroke="#000000" points="796.7822,-270 796.7822,-290 883.7822,-290 883.7822,-270 796.7822,-270"/>
<text text-anchor="start" x="801.7822" y="-276.9" font-family="Times,serif" font-size="9.00" fill="#000000">__v: Number</text>
</g>
<!-- showtimes&#45;&gt;seats -->
<g id="edge2" class="edge">
<title>showtimes:9&#45;&gt;seats:0</title>
<path fill="none" stroke="#000000" stroke-dasharray="5,2" d="M603.6938,-380C689.5109,-380 710.9651,-380 796.7822,-380"/>
<text text-anchor="middle" x="709.738" y="-384.2" font-family="Times,serif" font-size="14.00" fill="#000000">showtimes&#45;seats</text>
<text text-anchor="middle" x="791.7289" y="-367.4" font-family="Times,serif" font-size="14.00" fill="#000000">N</text>
<text text-anchor="middle" x="607.1938" y="-367.4" font-family="Times,serif" font-size="14.00" fill="#000000">1</text>
</g>
<!-- tickets -->
<g id="node6" class="node">
<title>tickets</title>
<polygon fill="#4477c9" stroke="transparent" points="797.2822,0 797.2822,-198 882.2822,-198 882.2822,0 797.2822,0"/>
<polygon fill="#add8e6" stroke="transparent" points="797.7822,-180 797.7822,-198 882.7822,-198 882.7822,-180 797.7822,-180"/>
<polygon fill="none" stroke="#000000" points="797.7822,-180 797.7822,-198 882.7822,-198 882.7822,-180 797.7822,-180"/>
<text text-anchor="start" x="826.2854" y="-186.9" font-family="Times,serif" font-weight="bold" font-style="italic" font-size="9.00" fill="#000000"> tickets </text>
<polygon fill="none" stroke="#000000" points="797.7822,-160 797.7822,-180 882.7822,-180 882.7822,-160 797.7822,-160"/>
<text text-anchor="start" x="802.6676" y="-166.9" font-family="Times,serif" font-size="9.00" fill="#000000">orderNumber: String</text>
<polygon fill="none" stroke="#000000" points="797.7822,-140 797.7822,-160 882.7822,-160 882.7822,-140 797.7822,-140"/>
<text text-anchor="start" x="802.7822" y="-146.9" font-family="Times,serif" font-size="9.00" fill="#000000">purchaseDate: Date</text>
<polygon fill="none" stroke="#000000" points="797.7822,-120 797.7822,-140 882.7822,-140 882.7822,-120 797.7822,-120"/>
<text text-anchor="start" x="802.7822" y="-126.9" font-family="Times,serif" font-size="9.00" fill="#000000">pricePaid: Number</text>
<polygon fill="none" stroke="#000000" points="797.7822,-100 797.7822,-120 882.7822,-120 882.7822,-100 797.7822,-100"/>
<text text-anchor="start" x="802.7822" y="-106.9" font-family="Times,serif" font-size="9.00" fill="#000000">status: String</text>
<polygon fill="none" stroke="#000000" points="797.7822,-80 797.7822,-100 882.7822,-100 882.7822,-80 797.7822,-80"/>
<text text-anchor="start" x="802.7822" y="-86.9" font-family="Times,serif" font-size="9.00" fill="#000000">showtime: ObjectId</text>
<polygon fill="none" stroke="#000000" points="797.7822,-60 797.7822,-80 882.7822,-80 882.7822,-60 797.7822,-60"/>
<text text-anchor="start" x="802.7822" y="-66.9" font-family="Times,serif" font-size="9.00" fill="#000000">seatIds: Array</text>
<polygon fill="none" stroke="#000000" points="797.7822,-40 797.7822,-60 882.7822,-60 882.7822,-40 797.7822,-40"/>
<text text-anchor="start" x="802.7822" y="-46.9" font-family="Times,serif" font-size="9.00" fill="#000000">buyer: ObjectId</text>
<polygon fill="none" stroke="#000000" points="797.7822,-20 797.7822,-40 882.7822,-40 882.7822,-20 797.7822,-20"/>
<text text-anchor="start" x="802.7822" y="-26.9" font-family="Times,serif" font-size="9.00" fill="#000000">_id: ObjectId</text>
<polygon fill="none" stroke="#000000" points="797.7822,0 797.7822,-20 882.7822,-20 882.7822,0 797.7822,0"/>
<text text-anchor="start" x="802.7822" y="-6.9" font-family="Times,serif" font-size="9.00" fill="#000000">__v: Number</text>
</g>
<!-- showtimes&#45;&gt;tickets -->
<g id="edge6" class="edge">
<title>showtimes:9&#45;&gt;tickets:4</title>
<path fill="none" stroke="#000000" stroke-dasharray="5,2" d="M603.6938,-380C681.2396,-380 720.2364,-90 797.7822,-90"/>
<text text-anchor="middle" x="709.738" y="-329.2" font-family="Times,serif" font-size="14.00" fill="#000000">showtimes&#45;tickets</text>
<text text-anchor="middle" x="792.7289" y="-77.4" font-family="Times,serif" font-size="14.00" fill="#000000">N</text>
<text text-anchor="middle" x="607.1938" y="-384.2" font-family="Times,serif" font-size="14.00" fill="#000000">1</text>
</g>
<!-- theaters -->
<g id="node5" class="node">
<title>theaters</title>
<polygon fill="#4477c9" stroke="transparent" points="0,-288 0,-386 63,-386 63,-288 0,-288"/>
<polygon fill="#add8e6" stroke="transparent" points=".5,-368 .5,-386 63.5,-386 63.5,-368 .5,-368"/>
<polygon fill="none" stroke="#000000" points=".5,-368 .5,-386 63.5,-386 63.5,-368 .5,-368"/>
<text text-anchor="start" x="15.7582" y="-374.9" font-family="Times,serif" font-weight="bold" font-style="italic" font-size="9.00" fill="#000000"> theaters </text>
<polygon fill="none" stroke="#000000" points=".5,-348 .5,-368 63.5,-368 63.5,-348 .5,-348"/>
<text text-anchor="start" x="5.5" y="-354.9" font-family="Times,serif" font-size="9.00" fill="#000000">name: String</text>
<polygon fill="none" stroke="#000000" points=".5,-328 .5,-348 63.5,-348 63.5,-328 .5,-328"/>
<text text-anchor="start" x="5.1305" y="-334.9" font-family="Times,serif" font-size="9.00" fill="#000000">address: String</text>
<polygon fill="none" stroke="#000000" points=".5,-308 .5,-328 63.5,-328 63.5,-308 .5,-308"/>
<text text-anchor="start" x="5.5" y="-314.9" font-family="Times,serif" font-size="9.00" fill="#000000">_id: ObjectId</text>
<polygon fill="none" stroke="#000000" points=".5,-288 .5,-308 63.5,-308 63.5,-288 .5,-288"/>
<text text-anchor="start" x="5.5" y="-294.9" font-family="Times,serif" font-size="9.00" fill="#000000">__v: Number</text>
</g>
<!-- theaters&#45;&gt;screens -->
<g id="edge1" class="edge">
<title>theaters:2&#45;&gt;screens:4</title>
<path fill="none" stroke="#000000" stroke-dasharray="5,2" d="M63,-318C295.6012,-318 8.8197,-810 241.4209,-810"/>
<text text-anchor="middle" x="143.6922" y="-800.2" font-family="Times,serif" font-size="14.00" fill="#000000">theaters&#45;screens</text>
<text text-anchor="middle" x="236.3676" y="-797.4" font-family="Times,serif" font-size="14.00" fill="#000000">N</text>
<text text-anchor="middle" x="66.5" y="-305.4" font-family="Times,serif" font-size="14.00" fill="#000000">1</text>
</g>
<!-- theaters&#45;&gt;showtimes -->
<g id="edge5" class="edge">
<title>theaters:2&#45;&gt;showtimes:8</title>
<path fill="none" stroke="#000000" stroke-dasharray="5,2" d="M63,-318C79.8655,-318 82.4571,-309.283 99,-306 200.8463,-285.7881 231.6067,-272.4953 332.4574,-297.2 428.4713,-320.7199 430.8411,-400 529.6938,-400"/>
<text text-anchor="middle" x="278.4209" y="-302.2" font-family="Times,serif" font-size="14.00" fill="#000000">theaters&#45;showtimes</text>
<text text-anchor="middle" x="524.6405" y="-387.4" font-family="Times,serif" font-size="14.00" fill="#000000">N</text>
<text text-anchor="middle" x="66.5" y="-322.2" font-family="Times,serif" font-size="14.00" fill="#000000">1</text>
</g>
<!-- users -->
<g id="node7" class="node">
<title>users</title>
<polygon fill="#4477c9" stroke="transparent" points="510.1938,-20 510.1938,-278 623.1938,-278 623.1938,-20 510.1938,-20"/>
<polygon fill="#add8e6" stroke="transparent" points="510.6938,-260 510.6938,-278 623.6938,-278 623.6938,-260 510.6938,-260"/>
<polygon fill="none" stroke="#000000" points="510.6938,-260 510.6938,-278 623.6938,-278 623.6938,-260 510.6938,-260"/>
<text text-anchor="start" x="555.6981" y="-266.9" font-family="Times,serif" font-weight="bold" font-style="italic" font-size="9.00" fill="#000000"> users </text>
<polygon fill="none" stroke="#000000" points="510.6938,-240 510.6938,-260 623.6938,-260 623.6938,-240 510.6938,-240"/>
<text text-anchor="start" x="515.6938" y="-246.9" font-family="Times,serif" font-size="9.00" fill="#000000">name: String</text>
<polygon fill="none" stroke="#000000" points="510.6938,-220 510.6938,-240 623.6938,-240 623.6938,-220 510.6938,-220"/>
<text text-anchor="start" x="515.6938" y="-226.9" font-family="Times,serif" font-size="9.00" fill="#000000">email: String</text>
<polygon fill="none" stroke="#000000" points="510.6938,-200 510.6938,-220 623.6938,-220 623.6938,-200 510.6938,-200"/>
<text text-anchor="start" x="515.6938" y="-206.9" font-family="Times,serif" font-size="9.00" fill="#000000">photo: String</text>
<polygon fill="none" stroke="#000000" points="510.6938,-180 510.6938,-200 623.6938,-200 623.6938,-180 510.6938,-180"/>
<text text-anchor="start" x="515.6938" y="-186.9" font-family="Times,serif" font-size="9.00" fill="#000000">role: String</text>
<polygon fill="none" stroke="#000000" points="510.6938,-160 510.6938,-180 623.6938,-180 623.6938,-160 510.6938,-160"/>
<text text-anchor="start" x="515.6938" y="-166.9" font-family="Times,serif" font-size="9.00" fill="#000000">password: String</text>
<polygon fill="none" stroke="#000000" points="510.6938,-140 510.6938,-160 623.6938,-160 623.6938,-140 510.6938,-140"/>
<text text-anchor="start" x="515.6938" y="-146.9" font-family="Times,serif" font-size="9.00" fill="#000000">passwordConfirm: String</text>
<polygon fill="none" stroke="#000000" points="510.6938,-120 510.6938,-140 623.6938,-140 623.6938,-120 510.6938,-120"/>
<text text-anchor="start" x="515.6938" y="-126.9" font-family="Times,serif" font-size="9.00" fill="#000000">passwordChangedAt: Date</text>
<polygon fill="none" stroke="#000000" points="510.6938,-100 510.6938,-120 623.6938,-120 623.6938,-100 510.6938,-100"/>
<text text-anchor="start" x="515.33" y="-106.9" font-family="Times,serif" font-size="9.00" fill="#000000">passwordResetToken: String</text>
<polygon fill="none" stroke="#000000" points="510.6938,-80 510.6938,-100 623.6938,-100 623.6938,-80 510.6938,-80"/>
<text text-anchor="start" x="515.5878" y="-86.9" font-family="Times,serif" font-size="9.00" fill="#000000">passwordResetExpires: Date</text>
<polygon fill="none" stroke="#000000" points="510.6938,-60 510.6938,-80 623.6938,-80 623.6938,-60 510.6938,-60"/>
<text text-anchor="start" x="515.6938" y="-66.9" font-family="Times,serif" font-size="9.00" fill="#000000">active: Boolean</text>
<polygon fill="none" stroke="#000000" points="510.6938,-40 510.6938,-60 623.6938,-60 623.6938,-40 510.6938,-40"/>
<text text-anchor="start" x="515.6938" y="-46.9" font-family="Times,serif" font-size="9.00" fill="#000000">_id: ObjectId</text>
<polygon fill="none" stroke="#000000" points="510.6938,-20 510.6938,-40 623.6938,-40 623.6938,-20 510.6938,-20"/>
<text text-anchor="start" x="515.6938" y="-26.9" font-family="Times,serif" font-size="9.00" fill="#000000">__v: Number</text>
</g>
<!-- users&#45;&gt;tickets -->
<g id="edge7" class="edge">
<title>users:10&#45;&gt;tickets:6</title>
<path fill="none" stroke="#000000" stroke-dasharray="5,2" d="M623.1938,-50C700.7886,-50 720.1874,-50 797.7822,-50"/>
<text text-anchor="middle" x="709.738" y="-54.2" font-family="Times,serif" font-size="14.00" fill="#000000">users&#45;tickets</text>
<text text-anchor="middle" x="792.7289" y="-37.4" font-family="Times,serif" font-size="14.00" fill="#000000">N</text>
<text text-anchor="middle" x="626.6938" y="-37.4" font-family="Times,serif" font-size="14.00" fill="#000000">1</text>
</g>
</g>
</svg>
